<?xml version="1.0" standalone="no"?><!DOCTYPE svg PUBLIC "-//W3C//DTD SVG 1.1//EN" "http://www.w3.org/Graphics/SVG/1.1/DTD/svg11.dtd"><svg t="1753632111890" class="icon" viewBox="0 0 1024 1024" version="1.1" xmlns="http://www.w3.org/2000/svg" p-id="1826" xmlns:xlink="http://www.w3.org/1999/xlink" width="200" height="200"><path d="M512 512m-512 0a512 512 0 1 0 1024 0 512 512 0 1 0-1024 0Z" fill="#333333" p-id="1827"></path><path d="M421.888 250.368c-124.416 0-225.28 83.712-225.28 186.624 0 60.416 34.56 114.176 88.576 147.968 0.768 0.256 2.048 1.28 2.048 1.28l-22.016 67.84 81.408-40.96 3.84 1.024c22.272 6.144 46.592 9.472 71.424 9.472 5.12 0 9.984-0.256 15.104-0.256-4.608-14.336-6.912-28.928-6.912-44.544 0.256-93.952 92.16-170.496 205.312-170.496 3.328 0 6.4 0 9.472 0.256-16.896-89.6-110.08-158.208-222.976-158.208z m-78.336 153.088c-17.408 0-31.488-13.568-31.488-30.464 0-16.896 14.336-30.464 31.488-30.464 17.664 0 31.744 13.568 31.744 30.464 0 16.64-14.336 30.464-31.744 30.464z m156.672 0c-17.408 0-31.488-13.568-31.488-30.464s14.08-30.464 31.488-30.464c17.408 0 31.488 13.568 31.488 30.464s-14.08 30.464-31.488 30.464z" fill="#FFFFFF" p-id="1828"></path><path d="M827.392 579.84c0-87.04-85.248-157.44-190.464-157.44s-190.464 70.656-190.464 157.44 85.248 157.696 190.464 157.696c20.992 0 41.216-2.816 60.16-8.192 1.024-0.256 3.328-1.024 3.328-1.024l68.864 34.816-18.432-56.832s1.024-0.768 1.792-1.024c45.568-28.928 74.752-74.24 74.752-125.44z m-256.768-28.672c-14.848 0-26.88-11.52-26.88-25.6s11.776-25.6 26.88-25.6c14.848 0 26.88 11.52 26.88 25.6s-11.776 25.6-26.88 25.6z m132.608 0c-14.848 0-26.88-11.52-26.88-25.6s11.776-25.6 26.88-25.6c14.848 0 26.88 11.52 26.88 25.6-0.256 14.08-12.032 25.6-26.88 25.6z" fill="#FFFFFF" p-id="1829"></path></svg>